PathFileType	4	(X/Y/Z)	..\data\2014001\dynamic\2014001_C4_04.trc
DataRate	CameraRate	NumFrames	NumMarkers	Units	OrigDataRate	OrigDataStartFrame	OrigNumFrames
100.000000	100.000000	4	52	mm	100.000000	116	155
Frame#	Time	L_IAS			L_IPS			R_IPS			R_IAS			L_FTC			L_FLE			L_FME			L_FAX			L_TTC			L_FAL			L_TAM			L_FCC			L_FM1			L_FM2			L_FM5			R_FTC			R_FLE			R_FME			R_FAX			R_TTC			R_FAL			R_TAM			R_FCC			R_FM1			R_FM2			R_FM5			CV7			TV10			SXS			SJN			L_SIA			L_SRS			L_SAA			L_SAE			L_HLE			L_HME			L_UOA			L_RSP			L_UHE			L_HM2			L_HM5			R_SIA			R_SRS			R_SAA			R_SAE			R_HLE			R_HME			R_UOA			R_RSP			R_UHE			R_HM2			R_HM5			
		X1	Y1	Z1	X2	Y2	Z2	X3	Y3	Z3	X4	Y4	Z4	X5	Y5	Z5	X6	Y6	Z6	X7	Y7	Z7	X8	Y8	Z8	X9	Y9	Z9	X10	Y10	Z10	X11	Y11	Z11	X12	Y12	Z12	X13	Y13	Z13	X14	Y14	Z14	X15	Y15	Z15	X16	Y16	Z16	X17	Y17	Z17	X18	Y18	Z18	X19	Y19	Z19	X20	Y20	Z20	X21	Y21	Z21	X22	Y22	Z22	X23	Y23	Z23	X24	Y24	Z24	X25	Y25	Z25	X26	Y26	Z26	X27	Y27	Z27	X28	Y28	Z28	X29	Y29	Z29	X30	Y30	Z30	X31	Y31	Z31	X32	Y32	Z32	X33	Y33	Z33	X34	Y34	Z34	X35	Y35	Z35	X36	Y36	Z36	X37	Y37	Z37	X38	Y38	Z38	X39	Y39	Z39	X40	Y40	Z40	X41	Y41	Z41	X42	Y42	Z42	X43	Y43	Z43	X44	Y44	Z44	X45	Y45	Z45	X46	Y46	Z46	X47	Y47	Z47	X48	Y48	Z48	X49	Y49	Z49	X50	Y50	Z50	X51	Y51	Z51	X52	Y52	Z52	

117	1.16	1490.164428710938	851.6937255859377	-411.9187622070314	1321.784790039063	893.2876586914065	-319.7111206054688	1329.435668945313	893.3096313476565	-229.1004333496094	1516.356567382813	874.0798339843752	-175.1585540771485	1401.925659179688	765.0939941406251	-458.8607482910157	1380.515991210938	419.8531188964845	-456.697723388672	1423.719360351563	388.1230468750001	-346.7985534667969	1330.284057617188	387.7438964843751	-460.9436645507814	1365.527709960938	324.4407958984376	-423.2126464843751	1066.317016601563	214.8389434814454	-401.5075683593751	1098.959594726563	195.3695831298829	-319.5667419433594	1023.729553222656	236.0631866455079	-344.0589904785157	1083.87158203125	72.39382934570314	-329.2061157226563	1084.182983398438	69.98120117187501	-388.9276733398439	1048.930541992188	105.7506256103516	-424.9851684570314	1443.08642578125	774.622009277344	-105.0528869628907	1563.880737304688	440.6472778320314	-158.1610870361328	1567.8134765625	436.7132263183595	-278.2355041503907	1551.3291015625	374.5561218261719	-155.7931823730469	1612.445556640625	374.0856628417969	-211.5625305175782	1509.578369140625	67.25013732910158	-205.7346343994141	1546.694580078125	82.51058197021486	-291.7646179199219	1466.181030273438	26.4223861694336	-261.6201477050782	1654.916625976563	23.25175285339356	-276.5307922363282	1658.67333984375	36.09357070922852	-210.9114379882813	1597.319702148438	25.51389503479005	-166.2781219482422	1331.145263671875	1357.611572265625	-269.1197204589844	1285.028076171875	1120.311279296875	-280.9788818359376	1523.255493164063	1146.242309570313	-288.9043273925782	1463.397583007813	1303.320678710938	-275.1213073730469	1282.691284179688	1164.940185546875	-379.4648437500001	1292.801391601563	1297.508544921875	-364.9986572265626	1374.934326171875	1302.689208984375	-472.3162536621095	1412.338989257813	1316.998779296875	-452.1346740722657	1439.356811523438	1036.969604492188	-542.2586059570314	1410.04638671875	995.159606933594	-471.504119873047	1413.287963867188	991.3323974609377	-522.4523315429689	1602.505493164063	854.7503662109377	-471.1392517089845	1575.59619140625	833.8222656250002	-543.8961791992189	1665.13720703125	794.675720214844	-468.5242309570314	1603.95458984375	761.1839599609376	-542.4382324218751	1277.294067382813	1154.817016601563	-171.0008087158203	1295.71337890625	1281.852172851563	-185.8030090332032	1371.561279296875	1279.409545898438	-82.53737640380861	1420.925537109375	1287.142822265625	-92.46261596679689	1364.407104492188	984.8779296875002	-37.3800392150879	1337.36083984375	973.7761230468752	-115.6974334716797	1332.598999023438	969.3017578125002	-69.69717407226564	1426.415649414063	766.2969360351564	-55.47649002075197	1368.2333984375	774.6621704101565	2.831755638122559	1429.050415039063	669.7728271484376	-38.21866989135743	1341.019287109375	699.7994995117189	3.022818565368653	
118	1.17	1503.00927734375	855.3189697265627	-411.340789794922	1335.156127929688	896.2803344726565	-318.2441101074219	1343.005737304688	896.3822021484377	-227.7943878173829	1529.791870117188	876.550720214844	-174.416259765625	1416.294189453125	767.5631713867189	-457.2848510742189	1408.476806640625	421.1577758789064	-455.976531982422	1450.169555664063	391.3076171875001	-344.5986328125001	1359.071899414063	388.6139221191407	-460.3889770507814	1394.03759765625	325.9449157714844	-421.3076782226564	1094.42041015625	217.2967071533204	-401.511688232422	1126.137329101563	198.0657348632813	-319.0830383300782	1050.452392578125	237.2867279052735	-344.6608886718751	1115.072998046875	74.93511199951173	-330.9384765625001	1115.695190429688	73.29821777343751	-390.4794311523439	1080.035522460938	109.1820068359375	-426.3803710937501	1455.877685546875	777.204284667969	-104.3104858398438	1568.130737304688	440.2261047363282	-157.5605621337891	1572.025390625	436.1001892089845	-277.8257751464844	1554.252197265625	374.1401672363282	-155.3125610351563	1615.631958007813	373.0102844238282	-210.7933197021485	1509.507568359375	67.44270324707033	-205.8202819824219	1546.918090820313	82.83837127685548	-291.7077941894532	1466.328491210938	26.64101600646973	-261.7026672363282	1654.74169921875	23.81290817260743	-276.4191589355469	1658.611206054688	36.67537689208985	-210.7852172851563	1597.228393554688	25.80913162231446	-166.1265411376953	1344.8564453125	1360.801879882813	-268.1351928710938	1298.696655273438	1123.422607421875	-279.6065368652344	1536.587280273438	1149.187866210938	-288.9481811523438	1476.931640625	1306.437255859375	-274.9759521484376	1295.591430664063	1168.264526367188	-378.0486755371094	1305.817138671875	1300.770874023438	-363.8024597167969	1387.313232421875	1305.935668945313	-471.5870666503907	1424.921630859375	1320.161376953125	-451.7265625000001	1449.851440429688	1039.633422851563	-540.9482421875001	1420.09033203125	998.501403808594	-469.9250488281251	1422.890991210938	994.8221435546877	-520.8192749023439	1608.487670898438	852.551208496094	-472.6832580566407	1580.143798828125	833.1380615234377	-545.4708251953126	1669.050170898438	790.2338867187502	-471.2251281738282	1605.957153320313	759.6692504882814	-544.9223632812501	1291.657592773438	1158.332885742188	-169.072998046875	1309.7646484375	1285.247802734375	-184.3907775878907	1386.761352539063	1282.70263671875	-81.6769256591797	1436.001708984375	1290.429443359375	-92.24927520751955	1383.885375976563	987.6865844726565	-35.62051391601563	1355.328002929688	975.9837036132815	-113.6000900268555	1351.715087890625	971.4837036132815	-67.47568511962892	1449.503662109375	770.1192626953127	-54.40954589843751	1392.071411132813	777.6169433593752	4.785917758941651	1454.394653320313	673.8381347656251	-36.79501724243165	1366.525024414063	702.3310546875001	5.879671096801759	
119	1.18	1515.760986328125	859.1975097656252	-410.8427124023439	1348.387573242188	899.486022949219	-316.8648071289063	1356.3984375	899.532409667969	-226.5736541748047	1542.987548828125	879.0400390625002	-173.7588043212891	1430.4990234375	770.4643554687502	-455.8721923828126	1436.160400390625	423.2334899902345	-455.1423950195314	1476.331909179688	395.268280029297	-342.3148803710938	1387.5947265625	390.0612182617189	-459.6406250000001	1422.643310546875	328.1633911132813	-419.4204101562501	1123.382080078125	218.4468383789063	-401.552459716797	1154.404296875	199.6405487060547	-318.6769409179688	1077.916625976563	236.6842041015626	-345.3318481445313	1148.508056640625	76.5886688232422	-332.6065673828126	1149.551635742188	75.82817840576173	-391.9956665039064	1113.11865234375	111.1826553344727	-427.7466735839845	1468.24462890625	779.7105102539065	-103.6989898681641	1571.61083984375	439.9070129394532	-156.8794403076172	1575.675170898438	435.6018676757814	-277.2814025878907	1556.523193359375	373.7926025390626	-154.7521667480469	1618.174926757813	372.0867919921876	-209.8760833740235	1509.378295898438	67.56491088867189	-205.8656311035157	1547.109375	83.16115570068361	-291.5760803222657	1466.410766601563	26.84394264221192	-261.8038024902344	1654.566772460938	24.34225463867188	-276.2030639648438	1658.485229492188	37.09721374511719	-210.6046447753907	1597.11083984375	25.88165664672852	-165.9923553466797	1358.432250976563	1364.096069335938	-267.2642211914063	1312.17138671875	1126.650634765625	-278.2693786621094	1549.719482421875	1152.2431640625	-289.0339050292969	1490.330444335938	1309.6875	-274.9390869140626	1308.3466796875	1171.708740234375	-376.6550903320313	1318.674926757813	1304.121459960938	-362.6764221191407	1399.468139648438	1309.313110351563	-470.9244689941407	1437.300537109375	1323.454467773438	-451.425262451172	1460.113891601563	1042.460327148438	-539.7451171875001	1429.9248046875	1002.025146484375	-468.4646301269532	1432.30126953125	998.5066528320315	-519.2932128906251	1614.024536132813	850.6179809570315	-474.3429565429689	1584.267822265625	832.7981567382815	-547.1602172851564	1672.334838867188	786.034362792969	-474.0010681152345	1607.395874023438	758.5496826171876	-547.4947509765626	1305.91650390625	1162.051391601563	-167.1526489257813	1323.669799804688	1288.776489257813	-183.0757751464844	1401.846435546875	1286.249145507813	-80.93482208251955	1450.924194335938	1293.963256835938	-92.16039276123048	1403.34375	990.8201904296877	-33.89426422119141	1373.366821289063	978.442810058594	-111.5115509033203	1370.870727539063	973.9126586914065	-65.28528594970705	1472.896118164063	774.405212402344	-53.44530105590822	1416.224609375	780.9834594726565	6.638020992279055	1480.302734375	678.4762573242189	-35.41189193725587	1392.558349609375	705.2551879882814	8.678634643554689	
120	1.19	1528.512817382813	863.2338867187502	-410.3507385253907	1361.505004882813	902.8226318359377	-315.6344299316407	1369.621215820313	902.6892700195315	-225.4821166992188	1555.949829101563	881.5081176757815	-173.1231994628907	1444.651123046875	773.7073364257815	-454.647918701172	1463.437133789063	426.0130310058595	-454.2322387695314	1502.19677734375	399.8583068847657	-340.0675048828126	1415.708129882813	392.0378417968751	-458.7376708984376	1451.224365234375	331.0229797363282	-417.6428222656251	1153.108642578125	218.2033843994141	-401.6087036132814	1183.70068359375	199.9833984375001	-318.3521423339844	1106.116455078125	234.2523193359376	-346.0132751464844	1183.8603515625	77.29544067382814	-334.1705627441407	1185.37353515625	77.46398162841798	-393.4246215820314	1147.858520507813	111.7101364135742	-429.0207519531251	1480.207275390625	782.0968017578127	-103.2047882080078	1574.488037109375	439.7113647460939	-156.1430206298828	1578.887084960938	435.2411499023439	-276.6305236816407	1558.313354492188	373.5452575683594	-154.1321868896485	1620.2255859375	371.3336791992188	-208.8595886230469	1509.239990234375	67.64779663085939	-205.8819427490235	1547.2939453125	83.47725677490236	-291.3952941894532	1466.450927734375	27.06759071350098	-261.9191284179688	1654.419799804688	24.77689743041993	-275.9166870117188	1658.346069335938	37.3331413269043	-210.3870086669922	1596.983764648438	25.76616859436036	-165.8676147460938	1371.884643554688	1367.417724609375	-266.4976196289063	1325.491088867188	1129.916015625	-276.9636535644532	1562.688598632813	1155.3564453125	-289.1327209472657	1503.611572265625	1313.011474609375	-274.9914855957032	1320.992431640625	1175.191528320313	-375.2824096679688	1331.40625	1307.475830078125	-361.6083679199219	1411.426513671875	1312.742065429688	-470.310760498047	1449.499145507813	1326.799926757813	-451.2153320312501	1470.135498046875	1045.378295898438	-538.6623535156251	1439.569458007813	1005.646301269531	-467.1372375488282	1441.532348632813	1002.300354003906	-517.8892211914064	1619.173095703125	848.9428710937502	-476.1118774414064	1588.044189453125	832.7720336914065	-548.9554443359376	1675.059204101563	782.0974121093752	-476.8182067871095	1608.379150390625	757.8049316406251	-550.1292724609376	1320.102905273438	1165.8818359375	-165.2343292236328	1337.445922851563	1292.353515625	-181.8537750244141	1416.813598632813	1289.983642578125	-80.29879760742189	1465.690795898438	1297.68408203125	-92.17543792724611	1422.7333984375	994.2212524414065	-32.19877624511719	1391.475708007813	981.103210449219	-109.4375076293946	1390.031494140625	976.5349121093752	-63.13343429565431	1496.551391601563	779.1213989257815	-52.5839309692383	1440.635986328125	784.7216796875002	8.368066787719728	1506.714599609375	683.6631469726564	-34.09407806396485	1419.051635742188	708.5439453125001	11.36277198791504	
